<?xml version="1.0" standalone="no"?>
<!DOCTYPE svg PUBLIC "-//W3C//DTD SVG 20010904//EN"
 "http://www.w3.org/TR/2001/REC-SVG-20010904/DTD/svg10.dtd">
<svg version="1.0" xmlns="http://www.w3.org/2000/svg"
 width="128.000000pt" height="128.000000pt" viewBox="0 0 128.000000 128.000000"
 preserveAspectRatio="xMidYMid meet">
<metadata>
Created by potrace 1.11, written by Peter Selinger 2001-2013
</metadata>
<g transform="translate(0.000000,128.000000) scale(0.100000,-0.100000)"
fill="#000000" stroke="none">
<path d="M484 1260 c-200 -57 -342 -178 -428 -363 -42 -89 -59 -186 -53 -297
9 -169 64 -289 188 -412 59 -59 96 -85 160 -117 46 -22 98 -43 114 -46 17 -3
46 -9 65 -13 19 -4 78 -7 130 -7 168 1 307 61 430 184 70 71 75 78 120 163 50
96 69 182 65 305 -5 178 -60 308 -185 434 -80 80 -145 122 -250 159 -86 31
-265 36 -356 10z m290 -109 c135 -32 275 -143 338 -268 31 -62 40 -86 55 -153
14 -63 13 -164 -1 -221 -47 -185 -171 -321 -350 -381 -68 -23 -93 -26 -166
-23 -97 4 -123 8 -191 34 -218 83 -360 305 -344 538 9 126 63 241 160 338 128
127 319 179 499 136z"/>
<path d="M357 1015 c-30 -24 -63 -58 -73 -74 -10 -17 -21 -31 -25 -31 -12 0
-60 -120 -73 -183 -32 -152 13 -304 123 -417 65 -66 117 -98 134 -81 7 7 12
53 13 109 1 53 2 99 3 102 2 8 355 6 362 -2 3 -5 5 -53 4 -107 -1 -92 1 -100
19 -105 65 -17 208 155 246 293 38 141 -14 347 -114 453 -40 42 -99 88 -114
88 -29 0 -38 -29 -37 -124 0 -60 -3 -96 -10 -97 -13 -1 -348 -1 -355 0 -3 1
-5 43 -5 94 1 50 0 99 -2 107 -7 28 -39 19 -96 -25z m632 -309 c16 -89 -2
-196 -46 -261 -11 -16 -13 14 -12 195 l1 215 24 -51 c13 -28 28 -72 33 -98z
m-641 -168 l-3 -103 -21 40 c-55 104 -54 232 2 336 l19 34 3 -102 c1 -57 1
-149 0 -205z m474 180 c2 -7 4 -47 4 -88 l-1 -75 -185 0 -185 0 -1 88 -1 87
182 0 c137 0 184 -3 187 -12z"/>
</g>
</svg>
