<?xml version="1.0" encoding="iso-8859-1"?>
<!-- Generator: Adobe Illustrator 19.0.0, SVG Export Plug-In . SVG Version: 6.00 Build 0)  -->
<svg version="1.1" id="Layer_1" xmlns="http://www.w3.org/2000/svg" xmlns:xlink="http://www.w3.org/1999/xlink" x="0px" y="0px"
	 viewBox="0 0 512.091 512.091" style="enable-background:new 0 0 512.091 512.091;" xml:space="preserve">
<g>
	<g>
		<g>
			<path d="M134.115,165.847c21.086,19.942,116.531,120.32,117.495,121.335l6.17,6.494l6.178-6.477
				c0.973-1.016,96.691-101.197,117.589-121.429c46.601-45.116,33.22-105.208,9.498-131.601
				c-19.994-22.238-43.742-33.997-68.676-33.997c-26.138,0-49.826,14.78-64.811,39.526c-14.933-24.747-38.46-39.526-64.341-39.526
				c-24.943,0-48.026,11.418-68.617,33.937C100.323,60.657,86.567,120.885,134.115,165.847z"/>
			<path d="M507.614,315.874c-15.027-21.18-30.165-21.632-68.326-1.545l-73.591,44.988c-5.248,2.799-13.175,4.642-22.4,5.845
				c-9.31,1.22-17.792,5.231-26.223,9.361c-1.135,0.555-2.406,0.862-3.746,0.862H230.4c-25.6,0-25.6,12.843-25.6,17.067
				c0,4.71-3.814,8.533-8.533,8.533s-8.533-3.823-8.533-8.533c0-21.376,15.949-34.133,42.667-34.133h82.253
				c-0.009-5.931-2.347-12.476-7.108-19.584c-13.38-19.951-36.301-31.855-61.338-31.855h-33.28
				c-18.082,0-35.447-5.589-48.905-15.727c-30.618-23.083-78.78,1.86-102.289,16.802v-17.903H0v221.867h59.733v-25.6h110.933
				c17.468,0,34.91-1.314,52.173-3.942l110.635-16.819c4.028-0.051,8.107-0.529,11.742-1.348
				c10.189-1.434,19.925-6.298,28.177-14.08l129.34-100.727l0.205-0.162C512.973,341.082,515.098,326.421,507.614,315.874z
				 M42.667,319.979v166.34v8.533h-25.6V307.119h25.6V319.979z"/>
		</g>
	</g>
</g>
<g>
</g>
<g>
</g>
<g>
</g>
<g>
</g>
<g>
</g>
<g>
</g>
<g>
</g>
<g>
</g>
<g>
</g>
<g>
</g>
<g>
</g>
<g>
</g>
<g>
</g>
<g>
</g>
<g>
</g>
</svg>
