<?xml version="1.0" encoding="iso-8859-1"?>
<!-- Generator: Adobe Illustrator 19.0.0, SVG Export Plug-In . SVG Version: 6.00 Build 0)  -->
<svg version="1.1" id="Capa_1" xmlns="http://www.w3.org/2000/svg" xmlns:xlink="http://www.w3.org/1999/xlink" x="0px" y="0px"
	 viewBox="0 0 512 512" style="enable-background:new 0 0 512 512;" xml:space="preserve">
<g>
	<g>
		<path d="M0,82.299v347.402h358.333v-57.172C345.264,360.977,337,344.106,337,325.333c0-10.243,2.473-19.914,6.829-28.472H101.334
			v-30h275.259c7.242-2.91,15.138-4.528,23.408-4.528c34.738,0,63,28.262,63,63c0,18.773-8.264,35.645-21.334,47.196V429.7H512
			V82.299H0z M185.697,326.333v30h-84.364v-30H185.697z M176,146.01h160v30H176V146.01z M410.667,236.436H101.334v-30h309.333
			V236.436z"/>
	</g>
</g>
<g>
	<g>
		<path d="M400,388.334c-3.987-0.001-7.883-0.389-11.667-1.101v35.101h23.333v-35.101C407.883,387.945,403.987,388.334,400,388.334z
			"/>
	</g>
</g>
<g>
	<g>
		<path d="M400,292.333c-18.196,0-33,14.804-33,33c0,18.196,14.804,33,33,33s33-14.804,33-33
			C433,307.137,418.197,292.333,400,292.333z"/>
	</g>
</g>
<g>
</g>
<g>
</g>
<g>
</g>
<g>
</g>
<g>
</g>
<g>
</g>
<g>
</g>
<g>
</g>
<g>
</g>
<g>
</g>
<g>
</g>
<g>
</g>
<g>
</g>
<g>
</g>
<g>
</g>
</svg>
