<svg xmlns="http://www.w3.org/2000/svg" viewBox="0 0 66 66">
  <defs>
    <style>
      .cls-1 {
        fill: #2c3e50;
      }

      .cls-1, .cls-2 {
        fill-rule: evenodd;
      }

      .cls-2 {
        fill: none;
        stroke: #fff;
        stroke-miterlimit: 10;
      }

      .cls-3 {
        fill: #fff;
      }
    </style>
  </defs>
  <title>Ресурс 1</title>
  <g id="Слой_2" data-name="Слой 2">
    <g id="Слой_1-2" data-name="Слой 1">
      <g>
        <path class="cls-1" d="M33,0A33,33,0,1,1,0,33,33,33,0,0,1,33,0Z"/>
        <path class="cls-2" d="M33,2.31A30.69,30.69,0,1,1,2.31,33,30.69,30.69,0,0,1,33,2.31Z"/>
        <path class="cls-3" d="M31.83,14.84,21.21,25.57a1.69,1.69,0,0,0,0,2.37,1.65,1.65,0,0,0,2.35,0l7.79-7.87V48.74a1.66,1.66,0,1,0,3.32,0V20.08l7.79,7.87a1.65,1.65,0,0,0,2.35,0,1.69,1.69,0,0,0,0-2.37L34.17,14.84A1.65,1.65,0,0,0,31.83,14.84Z"/>
      </g>
    </g>
  </g>
</svg>
