<svg xmlns="http://www.w3.org/2000/svg" viewBox="0 0 612 541.81">
  <defs>
    <style>
      .cls-1 {
        fill: #fff;
      }
    </style>
  </defs>
  <title>Ресурс 1</title>
  <g id="Слой_2" data-name="Слой 2">
    <g id="Capa_1" data-name="Capa 1">
      <path class="cls-1" d="M580.59,100.61l-83.26-37L234.48,187.16v79.35l-45.85-20.39V166.77L451.48,43.2,363.19,3.94c-11.82-5.26-31.17-5.26-43,0L102.8,100.61c-17.32,7.7-31.45,29.51-31.41,48.46l.34,143.24a140.74,140.74,0,0,1,43.19-6.81c77.95,0,141.37,63.42,141.37,141.38a140.38,140.38,0,0,1-12.2,57.19l76.76,32.82c11.44,4.89,30.15,4.89,41.58,0l216.9-92.69c17.61-7.53,32.06-29.36,32.11-48.51L612,149.07C612,130.12,597.91,108.31,580.59,100.61ZM496.65,265.07l29.46-62.15c3-6.27,10.43-9.89,13.41-6.49l30.23,34.46c3,3.44-.81,11.28-6.87,14.09l-12.72,5.9-.26,89.53c0,3.91-3.47,8.57-7.71,10.4l-19,8.22c-4.18,1.8-7.55.13-7.56-3.73l-.06-88.35-12.33,5.72C497.41,275.35,493.78,271.14,496.65,265.07ZM388,315.85l26.77-59.08c2.7-6,9.6-9.31,12.42-6l28.53,33.42c2.85,3.34-.63,10.78-6.24,13.38L437.75,303l.76,85.73c0,3.75-3.14,8.16-7.07,9.86l-17.66,7.63c-3.87,1.67-7,0-7.09-3.67l-1-84.65-11.43,5.3C388.85,325.71,385.42,321.62,388,315.85Zm195.87,48.33c0,2-1.78,4.3-3.95,5.21L378.21,454.14c-1.88.79-3.43,0-3.46-1.85l-.15-9.86a5.65,5.65,0,0,1,3.36-4.74l202.11-86.1c2.17-.92,3.92-.08,3.91,1.9ZM114.93,312A114.93,114.93,0,1,0,229.85,426.88,114.93,114.93,0,0,0,114.93,312ZM190,403.27,119.3,482.83A17.68,17.68,0,0,1,95,484.89l-44.2-35.36a17.68,17.68,0,0,1,22.09-27.61L104,446.79l59.57-67A17.68,17.68,0,1,1,190,403.27Z"/>

    </g>
  </g>
</svg>
