<svg xmlns="http://www.w3.org/2000/svg" viewBox="0 0 26.01 26.01">
  <title>Ресурс 8</title>
  <g id="Слой_2" data-name="Слой 2">
    <g id="Слой_1-2" data-name="Слой 1">
      <path d="M17.19,8.82a.44.44,0,0,0-.62,0L13,12.38,9.44,8.82a.44.44,0,1,0-.62.62L12.38,13,8.82,16.56a.44.44,0,0,0,.31.75.44.44,0,0,0,.31-.13L13,13.63l3.56,3.56a.44.44,0,0,0,.62,0,.44.44,0,0,0,0-.62L13.63,13l3.56-3.56A.44.44,0,0,0,17.19,8.82ZM13,0A13,13,0,1,0,26,13,13,13,0,0,0,13,0Zm0,25.13A12.12,12.12,0,1,1,25.12,13,12.14,12.14,0,0,1,13,25.13Z"/>
    </g>
  </g>
</svg>
