<svg xmlns="http://www.w3.org/2000/svg" viewBox="0 0 214.79 241.66">
  <defs>
    <style>
      .cls-1 {
        fill: #fafafa;
      }
    </style>
  </defs>
  <title>Ресурс 2</title>
  <g id="Слой_2" data-name="Слой 2">
    <g id="Capa_1" data-name="Capa 1">
      <g id="Like_2" data-name="Like 2">
        <path class="cls-1" d="M213.11,88.17A18.92,18.92,0,0,0,193.53,70l-6.18.29c10.32-.5,18.84-7.92,18.84-18.44,0-12.68-10.22-20.14-20.57-19.67L174,32.66c-.2,0-.13-.08-.23-.12,3.67-1.22,10.16-5.11,9.68-15.84,0-.33-.09-2.76-.19-3.35a11.48,11.48,0,0,0-3.46-7,21.71,21.71,0,0,0-15-6.36L137.46,0c-38,0-60,3.84-74.81,9-10.78,3.78-17.84,8.95-26.85,8.95H17.9C5.08,17.93,0,22.12,0,34.54v81.83c0,11.07,6.15,17.9,17.9,17.9,5.86,0,19.61-.9,28.43,7.93.53,1.05,1.06,2.06,1.61,3.06.31.64.66,1.12,1,1.81a4.42,4.42,0,0,0,.76,1.29,81,81,0,0,0,9.19,12.86c14.26,15.6,26.48,14,35.45,31.47,8,15.62,10.32,24.11,12.09,33.83h0s2.11,15.15,9.93,15.15c9.94,0,26.85-3.18,26.85-26.85,0-35.5-14.32-59.46-14.32-59.46l68.73-8.63c10.35-.46,17.63-9.92,17.17-20.44a18.88,18.88,0,0,0-19.57-18.2A19,19,0,0,0,213.11,88.17Z"/>
      </g>
    </g>
  </g>
</svg>
