<svg xmlns="http://www.w3.org/2000/svg" viewBox="0 0 29 41">
  <defs>
    <style>
      .cls-1 {
        fill: #7f7f7f;
      }
    </style>
  </defs>
  <title>Ресурс 11</title>
  <g id="Слой_2" data-name="Слой 2">
    <g id="Слой_1-2" data-name="Слой 1">
      <path class="cls-1" d="M21.66,0l-1.2,3.91,7.21,5.67Zm6.26,14.06h-.32v-1.9L18.27,4.82,19.75,0H1.32V14.06H1.08A1.16,1.16,0,0,0,0,15.29V25.88a1.16,1.16,0,0,0,1.08,1.23h.24V41H27.61V27.11h.32A1.16,1.16,0,0,0,29,25.88V15.29A1.16,1.16,0,0,0,27.92,14.06ZM8.68,24.16a5.75,5.75,0,0,1-4,1.29,15.21,15.21,0,0,1-2.25-.15V15.51a15.52,15.52,0,0,1,2.68-.21,5.14,5.14,0,0,1,3.59,1.06,4.67,4.67,0,0,1,1.48,3.76A5.4,5.4,0,0,1,8.68,24.16Zm6.47,1.35c-2.6,0-4.12-2.23-4.12-5.07s1.68-5.22,4.26-5.22,4.16,2.29,4.16,5C19.45,23.52,17.71,25.5,15.15,25.5Zm10.08-1.88a4.41,4.41,0,0,0,1.65-.33l.3,1.76a5.06,5.06,0,0,1-2.25.43c-3,0-4.59-2.14-4.59-5,0-3.4,2.13-5.29,4.78-5.29a4.61,4.61,0,0,1,2.16.44l-.4,1.79a3.81,3.81,0,0,0-1.66-.37c-1.57,0-2.79,1.08-2.79,3.3C22.43,22.37,23.47,23.62,25.23,23.62ZM15.24,17c-1.34,0-2.12,1.45-2.12,3.38s.81,3.33,2.13,3.33,2.11-1.45,2.11-3.39S16.61,17,15.24,17Zm-10,0a3.6,3.6,0,0,0-.9.09v6.52a3.15,3.15,0,0,0,.69,0c1.79,0,3-1.11,3-3.49C8,18.12,7,17,5.28,17Z"/>
    </g>
  </g>
</svg>
