<svg xmlns="http://www.w3.org/2000/svg" viewBox="0 0 511.97 512">
  <defs>
    <style>
      .cls-1 {
        fill: #666;
      }
    </style>
  </defs>
  <title>Ресурс 1</title>
  <g id="Слой_2" data-name="Слой 2">
    <g id="Layer_1" data-name="Layer 1">
      <g>
        <path class="cls-1" d="M510.36,226.51a21.57,21.57,0,0,0-4.63-7l-64-64a21.33,21.33,0,1,0-30.17,30.16l27.58,27.58H320A21.33,21.33,0,1,0,320,256H439.17l-27.58,27.58a21.33,21.33,0,1,0,30.17,30.17l64-64a21.13,21.13,0,0,0,4.63-7A21.36,21.36,0,0,0,510.36,226.51Z"/>
        <path class="cls-1" d="M362.67,298.67A21.33,21.33,0,0,0,341.33,320V426.67H256V85.33A21.36,21.36,0,0,0,240.79,64.9L166.7,42.67H341.33V149.33a21.33,21.33,0,0,0,42.67,0v-128A21.33,21.33,0,0,0,362.67,0H21.33a19,19,0,0,0-2.2.41,21.07,21.07,0,0,0-9,3.16c-.47.3-1,.32-1.49.66-.17.13-.24.36-.41.49a21.14,21.14,0,0,0-5.67,6.74,17.42,17.42,0,0,0-.6,1.79,20.23,20.23,0,0,0-1.68,5A13.28,13.28,0,0,0,.3,20.1c0,.43-.3.81-.3,1.24V448a21.32,21.32,0,0,0,17.15,20.91l213.33,42.67a19.85,19.85,0,0,0,4.18.43A21.35,21.35,0,0,0,256,490.67V469.33H362.67A21.33,21.33,0,0,0,384,448V320A21.33,21.33,0,0,0,362.67,298.67Z"/>
      </g>
    </g>
  </g>
</svg>
