<svg xmlns="http://www.w3.org/2000/svg" viewBox="0 0 23.02 15">
  <title>Ресурс 9</title>
  <g id="Слой_2" data-name="Слой 2">
    <g id="Слой_1-2" data-name="Слой 1">
      <path d="M11.51,0C7.11,0,3.12,2.63.18,6.9a1.07,1.07,0,0,0,0,1.19C3.12,12.37,7.11,15,11.51,15s8.39-2.63,11.33-6.9a1.07,1.07,0,0,0,0-1.19C19.89,2.63,15.91,0,11.51,0Zm.32,12.78A5.08,5.08,0,0,1,6.68,7.16a5.09,5.09,0,0,1,4.52-4.94,5.08,5.08,0,0,1,5.15,5.63A5.11,5.11,0,0,1,11.82,12.78Zm-.15-2.44a2.73,2.73,0,0,1-2.77-3,2.75,2.75,0,0,1,2.43-2.66,2.73,2.73,0,0,1,2.77,3A2.75,2.75,0,0,1,11.68,10.34Z"/>
    </g>
  </g>
</svg>
