<svg xmlns="http://www.w3.org/2000/svg" viewBox="0 0 13 19">
  <defs>
    <style>
      .cls-1 {
        fill: #444;
      }
    </style>
  </defs>
  <title>Ресурс 2</title>
  <g id="Слой_2" data-name="Слой 2">
    <g id="Слой_1-2" data-name="Слой 1">
      <path class="cls-1" d="M6.42,7.88a1.91,1.91,0,0,0-.44,0v3a1.69,1.69,0,0,0,.34,0c.89,0,1.46-.51,1.46-1.62A1.28,1.28,0,0,0,6.42,7.88Zm-3.78,0a1.59,1.59,0,0,0-.4,0V9.28a1.4,1.4,0,0,0,.33,0,.74.74,0,0,0,.84-.75C3.4,8.12,3.12,7.87,2.63,7.87ZM8.38,2.24,9.11,0H0V19H13V5.64ZM4,9.62a1.93,1.93,0,0,1-1.41.49l-.33,0v1.65h-1V7.18a7.5,7.5,0,0,1,1.32-.1,2,2,0,0,1,1.32.37,1.39,1.39,0,0,1,.46,1.07A1.53,1.53,0,0,1,4,9.62ZM8.1,11.19a3,3,0,0,1-2,.6A8,8,0,0,1,5,11.71V7.18a8.19,8.19,0,0,1,1.32-.1,2.66,2.66,0,0,1,1.77.49,2.1,2.1,0,0,1,.73,1.74A2.42,2.42,0,0,1,8.1,11.19Zm4-3.21H10.44V9H12v.85H10.44v1.86h-1V7.12h2.65ZM10,0,9.43,1.81,13,4.44Z"/>
    </g>
  </g>
</svg>
