<svg xmlns="http://www.w3.org/2000/svg" viewBox="0 0 21.01 32.01">
  <defs>
    <style>
      .cls-1 {
        fill: #249f7f;
      }
    </style>
  </defs>
  <title>Ресурс 6</title>
  <g id="Слой_2" data-name="Слой 2">
    <g id="Слой_1-2" data-name="Слой 1">
      <path class="cls-1" d="M9.61,6,6.43,14.78l2.12.08L9.13,13l2.63.1L12.21,15l2.12.08-2.55-9Zm.06,5.3.54-1.71q.17-.55.4-1.52h0l.29,1.54.41,1.75ZM10.51,0C4.7,0,0,5,0,11.23a11.91,11.91,0,0,0,.09,1.4C1,21.4,9.83,31.52,9.83,31.52a1.68,1.68,0,0,0,.45.39h0l.29.1.29-.1h0a1.69,1.69,0,0,0,.45-.39s8.71-10.13,9.59-18.9A11.83,11.83,0,0,0,21,11.23C21,5,16.31,0,10.51,0Zm0,18.46a7,7,0,0,1-6.76-7.23A7,7,0,0,1,10.51,4a7,7,0,0,1,6.76,7.23A7,7,0,0,1,10.51,18.46Z"/>
    </g>
  </g>
</svg>
