<svg xmlns="http://www.w3.org/2000/svg" viewBox="0 0 22.01 32.01">
  <defs>
    <style>
      .cls-1 {
        fill: #249f7f;
      }
    </style>
  </defs>
  <title>Ресурс 7</title>
  <g id="Слой_2" data-name="Слой 2">
    <g id="Слой_1-2" data-name="Слой 1">
      <path class="cls-1" d="M13.14,11.12v0a1.93,1.93,0,0,0,.74-.78,2.21,2.21,0,0,0,.27-1.05,1.93,1.93,0,0,0-.8-1.67A3.55,3.55,0,0,0,11.21,7H8v8.6h3.18A4.14,4.14,0,0,0,13.57,15a2.17,2.17,0,0,0,.93-1.94,2.24,2.24,0,0,0-.33-1.18A1.71,1.71,0,0,0,13.14,11.12Zm-3-2.3H11.2a.8.8,0,0,1,.6.2.73.73,0,0,1,.2.53.85.85,0,0,1-.19.57.7.7,0,0,1-.57.23H10.15Zm1.95,4.73a.88.88,0,0,1-.68.26H10.15V12h1.28a.82.82,0,0,1,.91.88A.9.9,0,0,1,12.09,13.56ZM11,0A11.12,11.12,0,0,0,0,11.23a11.39,11.39,0,0,0,.09,1.4C1,21.4,10.29,31.52,10.29,31.52a1.73,1.73,0,0,0,.48.39h0l.31.1.31-.1h0a1.75,1.75,0,0,0,.48-.39s9.13-10.13,10-18.9A11.32,11.32,0,0,0,22,11.23,11.12,11.12,0,0,0,11,0Zm0,18.46a7.16,7.16,0,0,1-7.08-7.23A7.16,7.16,0,0,1,11,4a7.16,7.16,0,0,1,7.08,7.23A7.16,7.16,0,0,1,11,18.46Z"/>
    </g>
  </g>
</svg>
