<svg xmlns="http://www.w3.org/2000/svg" viewBox="0 0 600.84 512">
  <defs>
    <style>
      .cls-1 {
        fill: #fff;
      }
    </style>
  </defs>
  <title>Ресурс 1</title>
  <g id="Слой_2" data-name="Слой 2">
    <g id="Capa_1" data-name="Capa 1">
      <path class="cls-1" d="M531.9,110.21A233.82,233.82,0,0,0,365.48,41.28H320.41V0L194,126.41,320.41,252.81V211.54h45.07c74.55,0,135.21,60.65,135.21,135.21S440,482,365.48,482v30A235.36,235.36,0,0,0,531.9,110.21Z"/>
      <path class="cls-1" d="M68.94,401.79a233.82,233.82,0,0,0,166.43,68.94h45.07V512L406.84,385.59,280.43,259.19v41.28H235.36c-74.55,0-135.21-60.65-135.21-135.21S160.81,30,235.36,30V0A235.36,235.36,0,0,0,68.94,401.79Z"/>
    </g>
  </g>
</svg>
