<svg xmlns="http://www.w3.org/2000/svg" viewBox="0 0 10 11">
  <defs>
    <style>
      .cls-1 {
        fill: #545454;
      }
    </style>
  </defs>
  <title>Ресурс 4</title>
  <g id="Слой_2" data-name="Слой 2">
    <g id="Слой_1-2" data-name="Слой 1">
      <path class="cls-1" d="M.25,9.25H2v1.5a.24.24,0,0,0,.25.25h1.3a.25.25,0,0,0,.18-.07.24.24,0,0,0,.07-.18V9.25H7.75A.24.24,0,0,0,8,9V8a.24.24,0,0,0-.25-.25H3.8V6.83H6.46A3.52,3.52,0,0,0,9,5.87a3.27,3.27,0,0,0,1-2.46A3.27,3.27,0,0,0,9,1,3.52,3.52,0,0,0,6.46,0H2.25A.24.24,0,0,0,2,.25V5.16H.25a.24.24,0,0,0-.18.07A.25.25,0,0,0,0,5.41V6.58a.24.24,0,0,0,.25.25H2v.92H.25A.24.24,0,0,0,0,8V9a.24.24,0,0,0,.25.25ZM3.8,1.66H6.3a1.85,1.85,0,0,1,1.34.48,1.67,1.67,0,0,1,.51,1.27,1.67,1.67,0,0,1-.51,1.27,1.85,1.85,0,0,1-1.34.48H3.8Z"/>
    </g>
  </g>
</svg>
