<svg xmlns="http://www.w3.org/2000/svg" viewBox="0 0 512 480.01">
  <defs>
    <style>
      .cls-1, .cls-2 {
        fill: #666;
      }

      .cls-2 {
        font-size: 12px;
        font-family: MyriadPro-Regular, Myriad Pro;
      }
    </style>
  </defs>
  <title>Ресурс 1</title>
  <g id="Слой_2" data-name="Слой 2">
    <g id="Layer_1" data-name="Layer 1">
      <g>
        <path class="cls-1" d="M338.54,96.34H252.49a5.67,5.67,0,0,0-5.66,5.85l7.29,222.16a5.66,5.66,0,0,0,5.66,5.48h71.48a5.67,5.67,0,0,0,5.66-5.48L344.2,102.2A5.67,5.67,0,0,0,338.54,96.34Z"/>
        <text class="cls-2" transform="translate(178 216.01)">666666</text>
      </g>
      <path class="cls-1" d="M494.76,96.34H383.9a5.67,5.67,0,0,0-5.66,5.48L370.95,324a5.67,5.67,0,0,0,5.66,5.85H468.4a17,17,0,0,0,16.85-14.76l26.6-199.49A17,17,0,0,0,494.76,96.34Z"/>
      <path class="cls-1" d="M470.38,372.91H147.3l-5.74-43.07h72.86a5.67,5.67,0,0,0,5.66-5.85l-7.29-222.16a5.67,5.67,0,0,0-5.66-5.48h-96.7L99.54,14.76A17,17,0,0,0,82.69,0H17.45C8.72,0,1.06,6.39.11,15.07A17,17,0,0,0,17,34H67.81l47.75,358.15a17,17,0,0,0,16.85,14.76h46.72a50.44,50.44,0,1,0,90.07,0h75.41a50.44,50.44,0,1,0,90.07,0h35.24c8.73,0,16.38-6.39,17.34-15.07A17,17,0,0,0,470.38,372.91Z"/>
    </g>
  </g>
</svg>
