<svg xmlns="http://www.w3.org/2000/svg" viewBox="0 0 985 861.9">
  <defs>
    <style>
      .cls-1 {
        fill: #666;
      }
    </style>
  </defs>
  <title>Ресурс 1</title>
  <g id="Слой_2" data-name="Слой 2">
    <g id="Capa_1" data-name="Capa 1">
      <g>
        <path class="cls-1" d="M915,0H70a70,70,0,0,0,0,140H915A70,70,0,0,0,915,0Z"/>
        <path class="cls-1" d="M985,551.3a70,70,0,0,0-70-70H70a70,70,0,0,0,0,140H915A70,70,0,0,0,985,551.3Z"/>
        <path class="cls-1" d="M70,380.6H765.4a70,70,0,0,0,0-140H70a70,70,0,0,0,0,140Z"/>
        <path class="cls-1" d="M592.3,791.9a70,70,0,0,0-70-70H70a70,70,0,0,0,0,140H522.3A70,70,0,0,0,592.3,791.9Z"/>
      </g>
    </g>
  </g>
</svg>
